<mxfile host="app.diagrams.net" agent="Mozilla/5.0 (X11; Linux x86_64; rv:135.0) Gecko/20100101 Firefox/135.0" version="26.0.16">
  <diagram name="Page-1" id="10a91c8b-09ff-31b1-d368-03940ed4cc9e">
    <mxGraphModel dx="1380" dy="1969" grid="1" gridSize="10" guides="1" tooltips="1" connect="1" arrows="1" fold="1" page="1" pageScale="1" pageWidth="1100" pageHeight="850" background="none" math="0" shadow="0">
      <root>
        <mxCell id="0" />
        <mxCell id="1" parent="0" />
        <mxCell id="Ae-QFa7De2D5QW8ssNNp-5" value="Requirements Typology and Assurance Levels" style="text;html=1;align=center;verticalAlign=middle;whiteSpace=wrap;rounded=0;fontSize=14;fontStyle=1" parent="1" vertex="1">
          <mxGeometry x="90" y="-525.56" width="240" height="40" as="geometry" />
        </mxCell>
        <mxCell id="62893188c0fa7362-2" value="Control Flow" style="whiteSpace=wrap;html=1;rounded=1;shadow=1;labelBackgroundColor=none;strokeWidth=1;fontFamily=Verdana;fontSize=12;align=center;fillColor=#e1d5e7;strokeColor=#9673a6;fillStyle=auto;" parent="1" vertex="1">
          <mxGeometry x="340" y="-478.14814814814815" width="95.29411764705881" height="44.44444444444445" as="geometry" />
        </mxCell>
        <mxCell id="iCtp4tgkIVFlYScKLQ9_-16" style="rounded=0;orthogonalLoop=1;jettySize=auto;html=1;endArrow=none;startFill=0;entryX=0.75;entryY=0;entryDx=0;entryDy=0;" parent="1" source="62893188c0fa7362-1" target="62893188c0fa7362-2" edge="1">
          <mxGeometry relative="1" as="geometry" />
        </mxCell>
        <mxCell id="iCtp4tgkIVFlYScKLQ9_-5" style="rounded=0;orthogonalLoop=1;jettySize=auto;html=1;endArrow=none;startFill=0;" parent="1" source="62893188c0fa7362-1" target="62893188c0fa7362-9" edge="1">
          <mxGeometry relative="1" as="geometry" />
        </mxCell>
        <mxCell id="iCtp4tgkIVFlYScKLQ9_-18" style="rounded=0;orthogonalLoop=1;jettySize=auto;html=1;endArrow=none;startFill=0;entryX=0.25;entryY=0;entryDx=0;entryDy=0;" parent="1" source="62893188c0fa7362-1" target="iCtp4tgkIVFlYScKLQ9_-17" edge="1">
          <mxGeometry relative="1" as="geometry" />
        </mxCell>
        <mxCell id="Cu9Ry4CzhxIELboiRuNk-6" style="rounded=0;orthogonalLoop=1;jettySize=auto;html=1;endArrow=none;startFill=0;exitX=0.25;exitY=0.667;exitDx=0;exitDy=0;exitPerimeter=0;entryX=0.75;entryY=0.333;entryDx=0;entryDy=0;entryPerimeter=0;" parent="1" source="62893188c0fa7362-1" target="62893188c0fa7362-8" edge="1">
          <mxGeometry relative="1" as="geometry" />
        </mxCell>
        <mxCell id="Cu9Ry4CzhxIELboiRuNk-7" style="rounded=0;orthogonalLoop=1;jettySize=auto;html=1;endArrow=none;startFill=0;exitX=0.833;exitY=0.833;exitDx=0;exitDy=0;exitPerimeter=0;entryX=0.083;entryY=0.167;entryDx=0;entryDy=0;entryPerimeter=0;" parent="1" source="62893188c0fa7362-1" target="62893188c0fa7362-3" edge="1">
          <mxGeometry relative="1" as="geometry" />
        </mxCell>
        <mxCell id="62893188c0fa7362-1" value="Requirements" style="whiteSpace=wrap;html=1;rounded=1;shadow=1;labelBackgroundColor=none;strokeWidth=1;fontFamily=Verdana;fontSize=12;align=center;" parent="1" vertex="1">
          <mxGeometry x="562.3529411764705" y="-530" width="95.29411764705881" height="44.44444444444445" as="geometry" />
        </mxCell>
        <mxCell id="62893188c0fa7362-3" value="Data" style="whiteSpace=wrap;html=1;rounded=1;shadow=1;labelBackgroundColor=none;strokeWidth=1;fontFamily=Verdana;fontSize=12;align=center;" parent="1" vertex="1">
          <mxGeometry x="673.5294117647059" y="-478.14814814814815" width="95.29411764705881" height="44.44444444444445" as="geometry" />
        </mxCell>
        <mxCell id="62893188c0fa7362-8" value="Resources" style="whiteSpace=wrap;html=1;rounded=1;shadow=1;labelBackgroundColor=none;strokeWidth=1;fontFamily=Verdana;fontSize=12;align=center;fillColor=#ffe6cc;strokeColor=#d79b00;" parent="1" vertex="1">
          <mxGeometry x="451.17647058823525" y="-478.14814814814815" width="95.29411764705881" height="44.44444444444445" as="geometry" />
        </mxCell>
        <mxCell id="62893188c0fa7362-9" value="Time" style="whiteSpace=wrap;html=1;rounded=1;shadow=1;labelBackgroundColor=none;strokeWidth=1;fontFamily=Verdana;fontSize=12;align=center;fillColor=#d5e8d4;strokeColor=#82b366;" parent="1" vertex="1">
          <mxGeometry x="562.3529411764705" y="-478.14814814814815" width="95.29411764705881" height="44.44444444444445" as="geometry" />
        </mxCell>
        <mxCell id="iCtp4tgkIVFlYScKLQ9_-8" style="rounded=0;orthogonalLoop=1;jettySize=auto;html=1;endArrow=none;startFill=0;" parent="1" source="62893188c0fa7362-10" target="iCtp4tgkIVFlYScKLQ9_-6" edge="1">
          <mxGeometry relative="1" as="geometry" />
        </mxCell>
        <mxCell id="iCtp4tgkIVFlYScKLQ9_-9" style="rounded=0;orthogonalLoop=1;jettySize=auto;html=1;endArrow=none;startFill=0;" parent="1" source="62893188c0fa7362-10" target="iCtp4tgkIVFlYScKLQ9_-7" edge="1">
          <mxGeometry relative="1" as="geometry" />
        </mxCell>
        <mxCell id="62893188c0fa7362-10" value="Data Flow" style="whiteSpace=wrap;html=1;rounded=1;shadow=1;labelBackgroundColor=none;strokeWidth=1;fontFamily=Verdana;fontSize=12;align=center;" parent="1" vertex="1">
          <mxGeometry x="625.8823529411765" y="-426.2962962962963" width="95.29411764705881" height="44.44444444444445" as="geometry" />
        </mxCell>
        <mxCell id="62893188c0fa7362-11" value="Data Quality" style="whiteSpace=wrap;html=1;rounded=0;shadow=1;labelBackgroundColor=none;strokeWidth=2;fontFamily=Verdana;fontSize=12;align=center;fillColor=#f8cecc;strokeColor=#b85450;" parent="1" vertex="1">
          <mxGeometry x="737.0588235294117" y="-426.2962962962963" width="95.29411764705881" height="44.44444444444445" as="geometry" />
        </mxCell>
        <mxCell id="62893188c0fa7362-16" value="" style="rounded=0;html=1;labelBackgroundColor=none;startArrow=none;startFill=0;startSize=5;endArrow=none;endFill=0;endSize=5;jettySize=auto;orthogonalLoop=1;strokeWidth=1;fontFamily=Verdana;fontSize=12" parent="1" source="62893188c0fa7362-3" target="62893188c0fa7362-10" edge="1">
          <mxGeometry x="-0.2614" y="-13" relative="1" as="geometry">
            <mxPoint as="offset" />
          </mxGeometry>
        </mxCell>
        <mxCell id="62893188c0fa7362-17" value="" style="rounded=0;html=1;labelBackgroundColor=none;startArrow=none;startFill=0;startSize=5;endArrow=none;endFill=0;endSize=5;jettySize=auto;orthogonalLoop=1;strokeWidth=1;fontFamily=Verdana;fontSize=12" parent="1" source="62893188c0fa7362-3" target="62893188c0fa7362-11" edge="1">
          <mxGeometry x="-0.1294" y="17" relative="1" as="geometry">
            <mxPoint as="offset" />
          </mxGeometry>
        </mxCell>
        <mxCell id="iCtp4tgkIVFlYScKLQ9_-6" value="&lt;div&gt;Static Data Flow&lt;/div&gt;" style="whiteSpace=wrap;html=1;rounded=1;shadow=1;labelBackgroundColor=none;strokeWidth=1;fontFamily=Verdana;fontSize=12;align=center;fillColor=#d5e8d4;strokeColor=#82b366;" parent="1" vertex="1">
          <mxGeometry x="554.4117647058823" y="-374.44444444444446" width="95.29411764705881" height="44.44444444444445" as="geometry" />
        </mxCell>
        <mxCell id="iCtp4tgkIVFlYScKLQ9_-7" value="Dynamic Data Flow" style="whiteSpace=wrap;html=1;rounded=1;shadow=1;labelBackgroundColor=none;strokeWidth=1;fontFamily=Verdana;fontSize=12;align=center;fillColor=#ffe6cc;strokeColor=#d79b00;" parent="1" vertex="1">
          <mxGeometry x="673.5294117647059" y="-374.44444444444446" width="95.29411764705881" height="44.44444444444445" as="geometry" />
        </mxCell>
        <mxCell id="iCtp4tgkIVFlYScKLQ9_-17" value="Enviromental" style="whiteSpace=wrap;html=1;rounded=0;shadow=1;labelBackgroundColor=none;strokeWidth=2;fontFamily=Verdana;fontSize=12;align=center;fillColor=#f8cecc;strokeColor=#b85450;" parent="1" vertex="1">
          <mxGeometry x="784.7058823529412" y="-478.14814814814815" width="95.29411764705881" height="44.44444444444445" as="geometry" />
        </mxCell>
        <mxCell id="Ae-QFa7De2D5QW8ssNNp-28" value="Unverifieable" style="whiteSpace=wrap;html=1;rounded=0;shadow=1;labelBackgroundColor=none;strokeWidth=2;fontFamily=Verdana;fontSize=12;align=center;fillColor=#f8cecc;strokeColor=#b85450;" parent="1" vertex="1">
          <mxGeometry x="90.0058823529412" y="-302.21814814814815" width="95.29411764705881" height="44.44444444444445" as="geometry" />
        </mxCell>
        <mxCell id="Ae-QFa7De2D5QW8ssNNp-29" value="Requirements that can not be ensured through executable&lt;br&gt;processes" style="text;whiteSpace=wrap;html=1;" parent="1" vertex="1">
          <mxGeometry x="197.64999999999998" y="-300" width="342.35" height="40" as="geometry" />
        </mxCell>
        <mxCell id="Ae-QFa7De2D5QW8ssNNp-31" value="Weak Assurance" style="whiteSpace=wrap;html=1;rounded=1;shadow=1;labelBackgroundColor=none;strokeWidth=2;fontFamily=Verdana;fontSize=12;align=center;fillColor=#ffe6cc;strokeColor=#d79b00;" parent="1" vertex="1">
          <mxGeometry x="90.0058823529412" y="-362.21814814814815" width="95.29411764705881" height="44.44444444444445" as="geometry" />
        </mxCell>
        <mxCell id="Ae-QFa7De2D5QW8ssNNp-32" value="Weak assurance can lead to incorrect verification results under &lt;i&gt;&lt;b&gt;known&lt;/b&gt; &lt;/i&gt;circumstances " style="text;whiteSpace=wrap;html=1;" parent="1" vertex="1">
          <mxGeometry x="197.64999999999998" y="-360" width="352.35" height="40" as="geometry" />
        </mxCell>
        <mxCell id="Ae-QFa7De2D5QW8ssNNp-33" value="Strong Assurance" style="whiteSpace=wrap;html=1;rounded=1;shadow=1;labelBackgroundColor=none;strokeWidth=1;fontFamily=Verdana;fontSize=12;align=center;fillColor=#d5e8d4;strokeColor=#82b366;" parent="1" vertex="1">
          <mxGeometry x="90" y="-422.22814814814814" width="95.29411764705881" height="44.44444444444445" as="geometry" />
        </mxCell>
        <mxCell id="Ae-QFa7De2D5QW8ssNNp-35" value="Formal Proof of Compliance" style="text;whiteSpace=wrap;html=1;" parent="1" vertex="1">
          <mxGeometry x="197.64999999999998" y="-477.78" width="132.35" height="40" as="geometry" />
        </mxCell>
        <mxCell id="Ae-QFa7De2D5QW8ssNNp-36" value="Strong guarantee through consistent results across a large testset, &lt;i&gt;&lt;b&gt;no known&lt;/b&gt;&lt;/i&gt; circumstances lead to incorrect results" style="text;whiteSpace=wrap;html=1;" parent="1" vertex="1">
          <mxGeometry x="197.64999999999998" y="-417.78" width="352.35" height="40" as="geometry" />
        </mxCell>
        <mxCell id="Ae-QFa7De2D5QW8ssNNp-38" style="rounded=0;orthogonalLoop=1;jettySize=auto;html=1;" parent="1" target="62893188c0fa7362-8" edge="1">
          <mxGeometry relative="1" as="geometry">
            <mxPoint x="560" y="-410" as="sourcePoint" />
          </mxGeometry>
        </mxCell>
        <mxCell id="Ae-QFa7De2D5QW8ssNNp-37" value="R3" style="text;whiteSpace=wrap;html=1;align=center;" parent="1" vertex="1">
          <mxGeometry x="562.35" y="-420" width="17.65" height="20" as="geometry" />
        </mxCell>
        <mxCell id="Ae-QFa7De2D5QW8ssNNp-39" style="rounded=0;orthogonalLoop=1;jettySize=auto;html=1;entryX=0.5;entryY=1;entryDx=0;entryDy=0;" parent="1" source="Ae-QFa7De2D5QW8ssNNp-40" target="iCtp4tgkIVFlYScKLQ9_-6" edge="1">
          <mxGeometry relative="1" as="geometry">
            <mxPoint x="574.06" y="-330" as="targetPoint" />
          </mxGeometry>
        </mxCell>
        <mxCell id="Ae-QFa7De2D5QW8ssNNp-40" value="R4" style="text;whiteSpace=wrap;html=1;align=center;" parent="1" vertex="1">
          <mxGeometry x="588.2299999999999" y="-302.22" width="27.65" height="30" as="geometry" />
        </mxCell>
        <mxCell id="Ae-QFa7De2D5QW8ssNNp-44" style="edgeStyle=orthogonalEdgeStyle;rounded=0;orthogonalLoop=1;jettySize=auto;html=1;" parent="1" source="Ae-QFa7De2D5QW8ssNNp-43" target="iCtp4tgkIVFlYScKLQ9_-7" edge="1">
          <mxGeometry relative="1" as="geometry" />
        </mxCell>
        <mxCell id="Ae-QFa7De2D5QW8ssNNp-43" value="R1, R2" style="text;whiteSpace=wrap;html=1;align=center;" parent="1" vertex="1">
          <mxGeometry x="697.9399999999999" y="-302.22" width="46.47" height="30" as="geometry" />
        </mxCell>
        <mxCell id="Ae-QFa7De2D5QW8ssNNp-46" style="edgeStyle=orthogonalEdgeStyle;rounded=0;orthogonalLoop=1;jettySize=auto;html=1;" parent="1" source="Ae-QFa7De2D5QW8ssNNp-45" target="62893188c0fa7362-11" edge="1">
          <mxGeometry relative="1" as="geometry" />
        </mxCell>
        <mxCell id="Ae-QFa7De2D5QW8ssNNp-45" value="&quot;Correctness&quot;" style="text;whiteSpace=wrap;html=1;align=center;" parent="1" vertex="1">
          <mxGeometry x="761.47" y="-330" width="46.47" height="30" as="geometry" />
        </mxCell>
        <mxCell id="Ae-QFa7De2D5QW8ssNNp-47" value="&quot;Security&quot;" style="text;whiteSpace=wrap;html=1;align=center;" parent="1" vertex="1">
          <mxGeometry x="832.35" y="-381.84999999999997" width="46.47" height="27.78" as="geometry" />
        </mxCell>
        <mxCell id="Ae-QFa7De2D5QW8ssNNp-48" style="edgeStyle=orthogonalEdgeStyle;rounded=0;orthogonalLoop=1;jettySize=auto;html=1;entryX=0.75;entryY=1;entryDx=0;entryDy=0;" parent="1" source="Ae-QFa7De2D5QW8ssNNp-47" target="iCtp4tgkIVFlYScKLQ9_-17" edge="1">
          <mxGeometry relative="1" as="geometry">
            <mxPoint x="850" y="-430" as="targetPoint" />
          </mxGeometry>
        </mxCell>
        <mxCell id="Ae-QFa7De2D5QW8ssNNp-50" value="Formal Proof" style="whiteSpace=wrap;html=1;rounded=1;shadow=1;labelBackgroundColor=none;strokeWidth=1;fontFamily=Verdana;fontSize=12;align=center;fillColor=#e1d5e7;strokeColor=#9673a6;" parent="1" vertex="1">
          <mxGeometry x="90.00294117647047" y="-477.78" width="95.29411764705881" height="44.44444444444445" as="geometry" />
        </mxCell>
        <mxCell id="Ae-QFa7De2D5QW8ssNNp-51" value="" style="endArrow=classic;startArrow=classic;html=1;rounded=0;" parent="1" edge="1">
          <mxGeometry width="50" height="50" relative="1" as="geometry">
            <mxPoint x="80" y="-280" as="sourcePoint" />
            <mxPoint x="80" y="-460" as="targetPoint" />
          </mxGeometry>
        </mxCell>
      </root>
    </mxGraphModel>
  </diagram>
</mxfile>
